<svg id="ICON_OrangeRewards" xmlns="http://www.w3.org/2000/svg" width="63.392" height="52.767" viewBox="0 0 63.392 52.767">
  <g id="Group_136323" data-name="Group 136323" transform="translate(46.119 23.06)">
    <path id="Path_412126" data-name="Path 412126" d="M585.253,226.664a.961.961,0,0,1-.883-.582,22.945,22.945,0,0,1-1.76-7.671c0-3.781-.764-10.9-3.627-13.614-.941-.891-6.285-3.177-9.432-4.409a.961.961,0,1,1,.7-1.789c1.417.555,8.563,3.393,10.052,4.8,4.109,3.89,4.227,13.883,4.227,15.009a21.328,21.328,0,0,0,1.605,6.915.96.96,0,0,1-.506,1.261A.951.951,0,0,1,585.253,226.664Z" transform="translate(-568.941 -198.533)"/>
  </g>
  <g id="Group_136324" data-name="Group 136324" transform="translate(34.575 21.094)">
    <path id="Path_412127" data-name="Path 412127" d="M570.554,222.145a.953.953,0,0,1-.256-.035c-5.589-1.541-8.623-5.105-9.021-10.592a1.071,1.071,0,0,0-.192-.542c-.255-.37-.763-1.058-1.389-1.9a68.867,68.867,0,0,1-5.16-7.54c-.418-.9-1.527-3.293.887-4.9s4.162.075,5.7,1.563c1.521,1.471,2.142,2.09,2.868,2.813.624.622,1.326,1.322,2.752,2.714a7.1,7.1,0,0,0,1.976,1.24,10.63,10.63,0,0,1,3.728,2.679.961.961,0,0,1-1.439,1.272,8.876,8.876,0,0,0-3.13-2.224,8.82,8.82,0,0,1-2.476-1.593c-1.433-1.4-2.138-2.1-2.765-2.728-.721-.718-1.339-1.332-2.848-2.793-1.826-1.767-2.353-1.978-3.3-1.345-.631.421-.987.821-.211,2.495a76.735,76.735,0,0,0,4.965,7.208c.641.87,1.162,1.576,1.423,1.955a3.027,3.027,0,0,1,.528,1.493c.124,1.713.5,6.919,7.615,8.881a.96.96,0,0,1-.254,1.886Z" transform="translate(-553.916 -195.974)"/>
  </g>
  <g id="Group_136325" data-name="Group 136325" transform="translate(42.769 47.523)">
    <path id="Path_412128" data-name="Path 412128" d="M568.407,235.613a.961.961,0,0,1-.918-.678,4.962,4.962,0,0,0-2.346-2.732.96.96,0,1,1,.8-1.747,6.85,6.85,0,0,1,3.384,3.914.962.962,0,0,1-.918,1.243Z" transform="translate(-564.58 -230.369)"/>
  </g>
  <g id="Group_136326" data-name="Group 136326" transform="translate(11.925 7.241)">
    <path id="Path_412129" data-name="Path 412129" d="M551.134,217.568h-21.2a5.5,5.5,0,0,1-5.5-5.5V178.906a.961.961,0,0,1,1.921,0v33.165a3.579,3.579,0,0,0,3.575,3.575h21.2a3.579,3.579,0,0,0,3.575-3.575v-2.852a.96.96,0,1,1,1.921,0v2.852A5.5,5.5,0,0,1,551.134,217.568Z" transform="translate(-524.44 -177.946)"/>
  </g>
  <g id="Group_136327" data-name="Group 136327" transform="translate(42.194 7.241)">
    <path id="Path_412130" data-name="Path 412130" d="M564.792,197.658a.961.961,0,0,1-.961-.96V178.906a.961.961,0,0,1,1.921,0V196.7A.961.961,0,0,1,564.792,197.658Z" transform="translate(-563.832 -177.946)"/>
  </g>
  <g id="Group_136328" data-name="Group 136328" transform="translate(28.7 7.241)">
    <path id="Path_412131" data-name="Path 412131" d="M550.492,193.485h-2.481a1.743,1.743,0,0,1-1.74-1.741V178.906a.961.961,0,0,1,1.921,0v12.658h2.121V178.906a.96.96,0,1,1,1.921,0v12.837A1.743,1.743,0,0,1,550.492,193.485Z" transform="translate(-546.271 -177.946)"/>
  </g>
  <g id="Group_136329" data-name="Group 136329" transform="translate(17.451 7.242)">
    <path id="Path_412132" data-name="Path 412132" d="M532.591,217.568a.96.96,0,0,1-.961-.96v-37.7a.961.961,0,0,1,1.921,0v37.7A.961.961,0,0,1,532.591,217.568Z" transform="translate(-531.631 -177.947)"/>
  </g>
  <g id="Group_136330" data-name="Group 136330" transform="translate(28.7 26.985)">
    <path id="Path_412133" data-name="Path 412133" d="M547.232,218.054a.96.96,0,0,1-.961-.96V204.6a.961.961,0,0,1,1.921,0v12.492A.961.961,0,0,1,547.232,218.054Z" transform="translate(-546.271 -203.641)"/>
  </g>
  <g id="Group_136331" data-name="Group 136331" transform="translate(23.895 7.242)">
    <path id="Path_412134" data-name="Path 412134" d="M540.979,217.568a.96.96,0,0,1-.961-.96v-37.7a.96.96,0,1,1,1.921,0v37.7A.961.961,0,0,1,540.979,217.568Z" transform="translate(-540.018 -177.947)"/>
  </g>
  <g id="Group_136332" data-name="Group 136332" transform="translate(32.742 26.985)">
    <path id="Path_412135" data-name="Path 412135" d="M552.492,210.247a.961.961,0,0,1-.961-.961V204.6a.961.961,0,0,1,1.921,0v4.685A.96.96,0,0,1,552.492,210.247Z" transform="translate(-551.531 -203.641)"/>
  </g>
  <g id="Group_136333" data-name="Group 136333" transform="translate(0 0)">
    <path id="Path_412136" data-name="Path 412136" d="M556.759,184.926h-4.685a.96.96,0,1,1,0-1.921h4.685a6.281,6.281,0,0,0,0-12.562H517.122a6.281,6.281,0,0,0,0,12.562h4.683a.96.96,0,1,1,0,1.921h-4.683a8.2,8.2,0,0,1,0-16.4h39.637a8.2,8.2,0,0,1,0,16.4Z" transform="translate(-508.92 -168.522)"/>
  </g>
  <g id="Group_136334" data-name="Group 136334" transform="translate(7.241 7.241)">
    <path id="Path_412137" data-name="Path 412137" d="M558.942,179.867H519.3a.96.96,0,1,1,0-1.921h39.637a.96.96,0,0,1,0,1.921Z" transform="translate(-518.344 -177.946)"/>
  </g>
</svg>
