<svg xmlns="http://www.w3.org/2000/svg" width="49.849" height="52.54" viewBox="0 0 49.849 52.54">
  <g id="ICON_PriceMatchGuarantee" transform="translate(13.096 -816.97)">
    <g id="Group_136339" data-name="Group 136339" transform="translate(6.988 834.345) rotate(34)">
      <rect id="Rectangle_260526" data-name="Rectangle 260526" width="17.83" height="2.656" rx="1.328" transform="translate(0 0)"/>
      <rect id="Rectangle_260527" data-name="Rectangle 260527" width="17.83" height="2.656" rx="1.328" transform="translate(0.001 7.208)"/>
    </g>
    <g id="Group_136341" data-name="Group 136341" transform="translate(-13.096 816.97)">
      <g id="Group_136340" data-name="Group 136340">
        <path id="Path_412155" data-name="Path 412155" d="M36.177,837.509l-20.97,30.576a3.285,3.285,0,0,1-4.566.849l-22.314-15.281a3.284,3.284,0,0,1-.845-4.566L1.407,828.731a1.1,1.1,0,1,1,1.809,1.237l-13.929,20.355a1.1,1.1,0,0,0,.277,1.523l22.314,15.281a1.1,1.1,0,0,0,1.523-.282l20.97-30.575a1.1,1.1,0,0,0,.128-.986l-5.466-15.4A1.092,1.092,0,0,0,28,819.159H11.188a1.09,1.09,0,0,0-.9.474l-1.925,2.816c6,.064,11.56,1.152,15.35,3.013a1.1,1.1,0,1,1-.969,1.967c-.525-.256-1.084-.5-1.681-.721a2.114,2.114,0,0,0,.073.977,2.189,2.189,0,1,0,3.111-2.582,1.1,1.1,0,0,1,1.024-1.937,4.379,4.379,0,0,1-2.048,8.253,4.38,4.38,0,0,1-4.255-5.394,42.3,42.3,0,0,0-11.193-1.4c-.465,0-.922,0-1.37.017a.262.262,0,0,1-.055,0,.765.765,0,0,0-.1,0c-10.143.3-17.086,3.58-17.086,6.542,0,1.114,1.011,2.3,2.846,3.354a1.092,1.092,0,0,1,.405,1.494,1.086,1.086,0,0,1-.952.551,1.093,1.093,0,0,1-.542-.141c-3.265-1.869-3.947-3.892-3.947-5.257,0-4.694,7.907-8.3,18.712-8.718l2.8-4.084a3.277,3.277,0,0,1,2.705-1.425H28a3.3,3.3,0,0,1,3.1,2.185l5.466,15.4A3.3,3.3,0,0,1,36.177,837.509Z" transform="translate(13.096 -816.97)"/>
      </g>
    </g>
  </g>
</svg>
