<svg xmlns="http://www.w3.org/2000/svg" width="76.878" height="79.912" viewBox="0 0 76.878 79.912">
  <g id="ICON_HopeToDream" transform="translate(-952.062 -47.163)">
    <g id="Group_302432" data-name="Group 302432" transform="translate(932.529 0.324)">
      <path id="Path_423754" data-name="Path 423754" d="M64.359,201.744h0a61.938,61.938,0,0,1-7.232-3.607C37.816,185.69,33.885,166.067,41.71,159.024c8.565-7.708,17.415-2.855,22.649.516,0,0,1.577.768,1.4-1.687a9.493,9.493,0,0,0-1.4-4.1c-3.792-5.747-19.794-19.856-35.782-9.292-22.755,15.034,8.239,55.8,35.3,61.586a1.926,1.926,0,0,0,2.511-1.778c.191-1.862-2.03-2.528-2.03-2.528" transform="translate(0 -80.514)" fill="none" stroke="#000" stroke-width="2.3"/>
      <path id="Path_423755" data-name="Path 423755" d="M278.384,55.138a7.149,7.149,0,1,1-7.148-7.149,7.149,7.149,0,0,1,7.148,7.149" transform="translate(-211.502 0)" fill="none" stroke="#000" stroke-width="2.3"/>
      <path id="Path_423756" data-name="Path 423756" d="M397.943,212.795c-7.365-8.119-19.758,1.384-23.557,5.414a3.086,3.086,0,0,0-1.165,2.006c-.049,1,1.121,1.113,1.687.736.226-.15,10.667-6.663,14.529,1.71,3.048,6.607-.683,17.535-13.624,27.121-1.019.755-2.54,1.126-2.594,2.292-.086,1.859,2.179,1.18,2.179,1.18,16.674-6.157,33.873-30.052,22.545-40.459" transform="translate(-306.329 -140.44)" fill="none" stroke="#000" stroke-width="2.3"/>
      <path id="Path_423757" data-name="Path 423757" d="M394.942,161.258a4.177,4.177,0,1,1-4.177-4.177,4.177,4.177,0,0,1,4.177,4.177" transform="translate(-317.949 -94.794)" fill="none" stroke="#000" stroke-width="2.3"/>
    </g>
    <path id="Path_423758" data-name="Path 423758" d="M-.277.047,1.485.016,2,2H0Z" transform="matrix(0.921, 0.391, -0.391, 0.921, 996.275, 119.649)"/>
  </g>
</svg>
