<svg xmlns="http://www.w3.org/2000/svg" width="55.175" height="52.402" viewBox="0 0 55.175 52.402">
  <g id="ICON_ReferAFriend" transform="translate(-949.55 19.95)">
    <rect id="Rectangle_252215" data-name="Rectangle 252215" width="1.871" height="1.871" transform="translate(988.815 26.837)"/>
    <path id="Path_412183" data-name="Path 412183" d="M1002.853,26.831h-.505a3.72,3.72,0,0,0,.362-2.868c-.143-.792-1.68-9.281-2.821-13.153a3.716,3.716,0,0,0-1.68-2.158s-.157-.1-.218-.123c-1.735-.785-5.771-2.336-7.307-2.923V3.611c1.844-1.113,2.807-3.654,2.807-5.778V-6.844c0-4.166-2.042-6.556-5.614-6.556h-3.271a4.852,4.852,0,0,1-4.152-2.657l-.744-1.188-.813,1.141a7.216,7.216,0,0,0-1.311,3.64,7.738,7.738,0,0,0,1.871,5.354v4.944A6.547,6.547,0,0,0,982.27,3.2v2.4c-.41.15-1.045.4-2.008.779l.683,1.741c.683-.273,1.2-.471,1.571-.621a4.4,4.4,0,0,0,7.922.014c1.741.662,5.259,2.028,6.816,2.739a1.835,1.835,0,0,1,.84,1.086c1.141,3.879,2.773,12.908,2.786,13l.02.1a1.724,1.724,0,0,1,.082.526,1.874,1.874,0,0,1-1.68,1.864h-3V23.1h1.871V21.224H996.3V16.546a2.817,2.817,0,0,0-2.814-2.807H979.456a2.811,2.811,0,0,0-2.807,2.807v4.678h-1.871V23.1h1.871v3.736h-3a1.88,1.88,0,0,1-1.68-1.864,1.812,1.812,0,0,1,.082-.54c.021-.075,2.1-7.5,3.305-11.63a3.977,3.977,0,0,0,4.1-3.736,3.169,3.169,0,0,0-.137-.922h.007c-.287-1.263-.649-2.848-.956-3.886A3.737,3.737,0,0,0,976.69,2.1a1.829,1.829,0,0,0-.219-.116c-1.735-.792-5.764-2.336-7.307-2.923V-3.075a6.878,6.878,0,0,0,2.807-5.641V-13.4c0-4.159-2.042-6.549-5.614-6.549h-7.485a3.757,3.757,0,0,0-3.743,3.743v.171a3.647,3.647,0,0,0,2.807,3.469v3.852a6.559,6.559,0,0,0,2.807,5.368v2.4c-1.537.587-5.566,2.131-7.307,2.923-.055.027-.212.116-.212.116a3.7,3.7,0,0,0-1.687,2.158c-1.154,3.941-1.981,6.945-1.987,6.973l1.8.492c.007-.027.826-3.012,1.981-6.932a1.932,1.932,0,0,1,.874-1.106c1.537-.69,5.047-2.049,6.788-2.711a4.215,4.215,0,0,0,3.961,2.479A4.193,4.193,0,0,0,968.911.962c1.741.669,5.265,2.028,6.823,2.745a1.842,1.842,0,0,1,.84,1.079c.068.239.143.505.219.8a4.416,4.416,0,0,0-1.543-.266,4.005,4.005,0,0,0-4.214,3.743,3.748,3.748,0,0,0,2.479,3.408c-1.216,4.18-3.244,11.371-3.264,11.439a3.915,3.915,0,0,0-.15,1.052,3.722,3.722,0,0,0,.5,1.871H957.937v-15.9h-1.871v15.9H952.33a1.876,1.876,0,0,0-1.871,1.878v1.871a1.87,1.87,0,0,0,1.871,1.871h50.524a1.876,1.876,0,0,0,1.871-1.878V28.7A1.883,1.883,0,0,0,1002.853,26.831ZM989.406,2.164l-.594.239V6.35a2.175,2.175,0,0,1-2.336,1.776,2.144,2.144,0,0,1-2.336-1.871V4.11a6.445,6.445,0,0,0,1.864.273h.942l-.007-1.871h-.936a4.69,4.69,0,0,1-4.678-4.678V-6.025a3.777,3.777,0,0,0,.936.109h.935V-7.787h-.935c-2.042,0-2.807-2.868-2.807-4.678a3.778,3.778,0,0,1,.328-1.366,6.255,6.255,0,0,0,4.822,2.3h3.271c.929,0,3.743,0,3.743,4.678v4.678C991.619-.514,990.772,1.617,989.406,2.164ZM967.88-4.522l-.587.239V-.3a2.144,2.144,0,0,1-2.336,1.871A2.15,2.15,0,0,1,962.615-.3V-2.446a6.3,6.3,0,0,0,1.871.28h.936V-4.038h-.936a4.69,4.69,0,0,1-4.678-4.678v-3.749h1.871v-1.871h-2.807a.372.372,0,0,1-.123,0A1.805,1.805,0,0,1,957-16.207a1.878,1.878,0,0,1,1.871-1.871h7.485c.922,0,3.743,0,3.743,4.678v4.678C970.1-6.926,969.082-5,967.88-4.522Zm5.026,13.584a2.4,2.4,0,0,1,4.678,0,2.4,2.4,0,0,1-4.678,0Zm29.947,21.513H952.33V28.7h34.618V26.831H978.52V16.546a.937.937,0,0,1,.936-.936H993.49a.939.939,0,0,1,.942.936V26.831h-1.871V28.7h10.292Z"/>
    <path id="Path_412184" data-name="Path 412184" d="M985.06,51.29V51.3a.827.827,0,0,1-.13-.007Z" transform="translate(-11.218 -22.587)"/>
    <path id="Path_412185" data-name="Path 412185" d="M1022.366,51.29c-.082.007-.164.007-.246.007V51.29Z" transform="translate(-23.009 -22.587)"/>
    <path id="Path_309047" data-name="Path 309047" d="M996.584,34.859h-1.871V36.73h1.871Z" transform="translate(-14.319 -17.378)"/>
    <path id="Path_309048" data-name="Path 309048" d="M996.584,40.337h-1.871v1.871h1.871Z" transform="translate(-14.319 -19.115)"/>
  </g>
</svg>
