<svg xmlns="http://www.w3.org/2000/svg" width="97.79" height="73.766" viewBox="0 0 97.79 73.766">
  <g id="ICON_MakingAnImpact" transform="translate(-408.462 -4985.217)">
    <g id="Group_302439" data-name="Group 302439" transform="translate(409.242 4985.817)">
      <g id="Group_302438" data-name="Group 302438" transform="translate(0 0)">
        <g id="Group_302434" data-name="Group 302434" transform="translate(0 25.406)">
          <path id="Path_423759" data-name="Path 423759" d="M54.394,194l-1.458-3.651L81.36,178.978a13.869,13.869,0,0,1,7.111-.833l26.362,3.847a5.895,5.895,0,0,1-.857,11.727H88.432v-3.93h25.545a1.965,1.965,0,0,0,.291-3.908L87.9,182.034a9.949,9.949,0,0,0-5.081.593Z" transform="translate(-52.936 -172.105)" stroke="#fff" stroke-width="1.2"/>
          <path id="Path_423760" data-name="Path 423760" d="M83,204.149v-3.93A17.575,17.575,0,0,0,95.336,195.2l1.584-1.541,2.741,2.818-1.582,1.539A21.492,21.492,0,0,1,83,204.149Z" transform="translate(-23.924 -156.989)" stroke="#fff" stroke-width="1.2"/>
          <rect id="Rectangle_261804" data-name="Rectangle 261804" width="4.163" height="3.93" transform="matrix(0.716, -0.698, 0.698, 0.716, 76.115, 33.638)" stroke="#fff" stroke-width="1.2"/>
          <path id="Path_423761" data-name="Path 423761" d="M58.688,214.99l-1.757-3.517,12.344-6.17a7.919,7.919,0,0,1,4.867-.709l32.314,5.632a9.962,9.962,0,0,0,8.552-2.639l25.96-25.284a1.944,1.944,0,0,0,.593-1.407,1.966,1.966,0,0,0-2.975-1.686l-23.682,14.3-2.032-3.366,23.68-14.3a5.895,5.895,0,0,1,7.157,9.271L117.751,210.4a13.677,13.677,0,0,1-9.6,3.9,13.864,13.864,0,0,1-2.374-.2l-32.314-5.632a4.005,4.005,0,0,0-2.435.352Z" transform="translate(-49.081 -175)" stroke="#fff" stroke-width="1.2"/>
          <path id="Path_423762" data-name="Path 423762" d="M77.307,185.515l-2.928-2.621C78.873,177.877,85.764,175,93.284,175a25.459,25.459,0,0,1,18.491,7.441l-2.847,2.71a21.516,21.516,0,0,0-15.643-6.221C86.973,178.93,81,181.392,77.307,185.515Z" transform="translate(-32.244 -175)" stroke="#fff" stroke-width="1.2"/>
        </g>
        <g id="Group_302435" data-name="Group 302435" transform="translate(58.659 0)">
          <path id="Path_423763" data-name="Path 423763" d="M1.167,9.336H-.649V7.52c0-8.078,4.634-12.712,12.712-12.712A3.306,3.306,0,0,1,15.7-1.56c0,7.639-4.346,10.9-14.528,10.9m10.9-10.9h.574c-5.46,0-8.98,2.372-9.55,7.222,8.28-.386,8.977-3.662,8.977-7.5" transform="translate(0.649 5.192)" stroke="#fff" stroke-width="1.2"/>
        </g>
        <g id="Group_302436" data-name="Group 302436" transform="translate(45.946 0)">
          <path id="Path_423764" data-name="Path 423764" d="M10.5,9.336H8.687C-1.5,9.336-5.841,6.079-5.841-1.56A3.306,3.306,0,0,1-2.209-5.192C5.87-5.192,10.5-.558,10.5,7.52ZM-2.209-1.479c0,3.836.7,6.755,8.977,7.141C6.2.807,2.661-1.56-2.793-1.56" transform="translate(5.841 5.192)" stroke="#fff" stroke-width="1.2"/>
        </g>
        <g id="Group_302437" data-name="Group 302437" transform="translate(58.65 12.71)">
          <path id="Path_423765" data-name="Path 423765" d="M2.334,11.565-1.3,11.56-1.29-2.612l3.632.005Z" transform="translate(1.298 2.612)" stroke="#fff" stroke-width="1.2"/>
        </g>
        <path id="Path_423766" data-name="Path 423766" d="M0-.308A21.709,21.709,0,0,1,3.614-.687a27.757,27.757,0,0,1,3.644.3L6.844,1.94H0Z" transform="translate(57.048 26.592)"/>
      </g>
      <path id="Path_423767" data-name="Path 423767" d="M1.039.687,6.522,0,8.4,2.484,0,3.522Z" transform="matrix(0.914, -0.407, 0.407, 0.914, 73.466, 34.447)"/>
      <path id="Path_423768" data-name="Path 423768" d="M0-.01,1.722-.457A4.642,4.642,0,0,1,2.645.737a16.257,16.257,0,0,1,.722,1.816,10.448,10.448,0,0,1-.579,2.038,5.765,5.765,0,0,1-.8,1.366L0,6.834A16.875,16.875,0,0,0,.181,2.37,7.293,7.293,0,0,1,0-.01Z" transform="translate(63.316 38.32)"/>
      <path id="Path_423769" data-name="Path 423769" d="M0,.089,7.136,0,5.558,2.8.187,2.813Z" transform="translate(41.296 32.788) rotate(9)"/>
      <path id="Path_423770" data-name="Path 423770" d="M-.132,0,2.144-.066l.167,5.931H-.132Z" transform="translate(59.407 10.935)"/>
      <path id="Path_423771" data-name="Path 423771" d="M0,.127,2.443,0s.093.905.135,2.388-.135,3.606-.135,3.606H0S.073,4.026.073,2.559,0,.127,0,.127Z" transform="translate(63.525 11.392) rotate(90)"/>
      <path id="Path_423772" data-name="Path 423772" d="M2.426.292A17.09,17.09,0,0,0,4.531.086c.749-.155.9-.054.9-.054L5.182,2.387s-1.923.56-2.988.915A6.86,6.86,0,0,0,0,4.837Z" transform="translate(57.997 9.151) rotate(-51)"/>
    </g>
  </g>
</svg>
