<svg xmlns="http://www.w3.org/2000/svg" width="59.738" height="52.402" viewBox="0 0 59.738 52.402">
  <g id="ICON_ThisIsHomeYourWay" transform="translate(-61 -67.078)">
    <g id="Group_136336" data-name="Group 136336" transform="translate(61 67.078)">
      <path id="Path_412138" data-name="Path 412138" d="M376.212,76.336h-6.466v-2.1h6.466a1.053,1.053,0,0,0,.741-.307l2.1-2.1a.434.434,0,0,0-.307-.741H331.708V69h47.034a2.53,2.53,0,0,1,1.789,4.319l-2.1,2.1A3.121,3.121,0,0,1,376.212,76.336Z" transform="translate(-321.534 -58.52)"/>
      <rect id="Rectangle_260521" data-name="Rectangle 260521" width="32.925" height="2.096" transform="translate(11.091 15.721)"/>
      <path id="Path_412139" data-name="Path 412139" d="M335.914,97.959,329.77,62.883A2.09,2.09,0,0,0,327.7,61.1H322V59h5.7a4.173,4.173,0,0,1,4.142,3.539l6.14,35.057Z" transform="translate(-322 -59)"/>
      <path id="Path_412140" data-name="Path 412140" d="M367.681,104.355H335.192a4.192,4.192,0,1,1,0-8.384H369.31a2.1,2.1,0,0,0,2.053-1.675l4-19.5,2.053.421-4,19.5a4.207,4.207,0,0,1-4.106,3.348H335.192a2.1,2.1,0,1,0,0,4.192h32.489Z" transform="translate(-321.568 -58.241)"/>
      <path id="Path_412141" data-name="Path 412141" d="M366.192,109.384a4.192,4.192,0,1,1,4.192-4.192A4.2,4.2,0,0,1,366.192,109.384Zm0-6.288a2.1,2.1,0,1,0,2.1,2.1A2.1,2.1,0,0,0,366.192,103.1Z" transform="translate(-320.079 -56.983)"/>
      <path id="Path_412142" data-name="Path 412142" d="M341.192,109.384a4.192,4.192,0,1,1,4.192-4.192A4.2,4.2,0,0,1,341.192,109.384Zm0-6.288a2.1,2.1,0,1,0,2.1,2.1A2.1,2.1,0,0,0,341.192,103.1Z" transform="translate(-321.28 -56.983)"/>
      <rect id="Rectangle_260522" data-name="Rectangle 260522" width="2.096" height="13.624" transform="translate(31.441 20.961)"/>
      <rect id="Rectangle_260523" data-name="Rectangle 260523" width="2.096" height="13.624" transform="translate(23.057 20.961)"/>
      <rect id="Rectangle_260524" data-name="Rectangle 260524" width="2.096" height="13.624" transform="translate(39.825 20.961)"/>
    </g>
  </g>
</svg>
